<svg xmlns="http://www.w3.org/2000/svg" width="651" height="790" viewBox="302 216 651 790"><defs><clipPath id="muni3-manzana-0"><path d="M 793 217.472 C 740.632 225.130, 703.451 248.021, 676.689 289.079 C 668.299 301.950, 659.369 320.546, 654.484 335.319 C 650.884 346.204, 649.809 348.453, 648.312 348.230 C 638.097 346.708, 628.641 349.131, 622.655 354.804 C 617.420 359.764, 609.706 378.290, 605.917 395 L 604.670 400.500 602.443 393.224 C 599.586 383.888, 590.632 365.747, 583.824 355.500 C 576.989 345.212, 562.825 330.508, 553.671 324.196 C 540.078 314.824, 523.439 307.798, 506.975 304.479 C 488.235 300.701, 458.208 301.577, 438.931 306.465 C 428.887 309.012, 425.726 310.761, 422.956 315.304 C 417.165 324.802, 425.683 355.404, 440.288 377.573 C 463.020 412.078, 497.798 433.122, 540.299 438.090 C 552.821 439.553, 579.076 438.696, 590.836 436.439 C 595.422 435.559, 599.371 435.038, 599.613 435.279 C 599.855 435.521, 599.556 442.042, 598.949 449.769 C 598.341 457.496, 598.052 465.812, 598.306 468.248 L 598.768 472.678 584.634 465.553 C 564.477 455.391, 552.180 451.649, 530 448.929 C 510.247 446.506, 481.311 450.203, 458.265 458.095 C 424.231 469.750, 392.189 491.131, 367.742 518.500 C 333.309 557.050, 313.056 601.338, 304.865 656 C 302.843 669.492, 302.540 675.321, 302.521 701 C 302.507 720.217, 302.975 734.160, 303.863 741 C 315.628 831.668, 361.613 914.117, 428.500 964.467 C 454.446 983.998, 481.039 996.355, 510.866 1002.740 C 522.566 1005.244, 525.237 1005.444, 547 1005.443 C 565.252 1005.442, 572.581 1005.047, 579.818 1003.678 C 589.783 1001.792, 610.463 996.087, 616.548 993.544 C 622.356 991.118, 628.255 991.688, 641.652 995.971 C 709.632 1017.704, 777.392 1002.622, 836.780 952.539 C 849.648 941.687, 867.657 923.129, 878.545 909.500 C 918.683 859.257, 942.017 803.511, 951.169 736 C 953.138 721.472, 952.816 674.680, 950.638 659 C 948.296 642.135, 945.665 629.472, 941.495 614.982 C 915.956 526.255, 847.830 461.712, 766.702 449.383 C 753.524 447.380, 729.371 447.382, 716.988 449.387 C 694.448 453.036, 669.592 462.792, 651.184 475.213 C 647.143 477.940, 643.559 479.893, 643.220 479.553 C 642.337 478.671, 644.754 442.231, 646.413 431.399 C 650.013 407.901, 653.893 394.518, 656.837 395.443 C 657.752 395.730, 665.250 396.388, 673.500 396.906 C 703.950 398.815, 736.344 394.733, 759.961 386.010 C 786.322 376.273, 805.268 363.895, 824.500 343.845 C 854.768 312.290, 872.967 270.530, 870.722 237.781 C 869.883 225.540, 866.447 221.594, 853.876 218.432 C 844.892 216.173, 806.071 215.560, 793 217.472 Z" stroke="none" fill="#d9522e" fill-rule="evenodd"/></clipPath></defs><path d="M 793 217.472 C 740.632 225.130, 703.451 248.021, 676.689 289.079 C 668.299 301.950, 659.369 320.546, 654.484 335.319 C 650.884 346.204, 649.809 348.453, 648.312 348.230 C 638.097 346.708, 628.641 349.131, 622.655 354.804 C 617.420 359.764, 609.706 378.290, 605.917 395 L 604.670 400.500 602.443 393.224 C 599.586 383.888, 590.632 365.747, 583.824 355.500 C 576.989 345.212, 562.825 330.508, 553.671 324.196 C 540.078 314.824, 523.439 307.798, 506.975 304.479 C 488.235 300.701, 458.208 301.577, 438.931 306.465 C 428.887 309.012, 425.726 310.761, 422.956 315.304 C 417.165 324.802, 425.683 355.404, 440.288 377.573 C 463.020 412.078, 497.798 433.122, 540.299 438.090 C 552.821 439.553, 579.076 438.696, 590.836 436.439 C 595.422 435.559, 599.371 435.038, 599.613 435.279 C 599.855 435.521, 599.556 442.042, 598.949 449.769 C 598.341 457.496, 598.052 465.812, 598.306 468.248 L 598.768 472.678 584.634 465.553 C 564.477 455.391, 552.180 451.649, 530 448.929 C 510.247 446.506, 481.311 450.203, 458.265 458.095 C 424.231 469.750, 392.189 491.131, 367.742 518.500 C 333.309 557.050, 313.056 601.338, 304.865 656 C 302.843 669.492, 302.540 675.321, 302.521 701 C 302.507 720.217, 302.975 734.160, 303.863 741 C 315.628 831.668, 361.613 914.117, 428.500 964.467 C 454.446 983.998, 481.039 996.355, 510.866 1002.740 C 522.566 1005.244, 525.237 1005.444, 547 1005.443 C 565.252 1005.442, 572.581 1005.047, 579.818 1003.678 C 589.783 1001.792, 610.463 996.087, 616.548 993.544 C 622.356 991.118, 628.255 991.688, 641.652 995.971 C 709.632 1017.704, 777.392 1002.622, 836.780 952.539 C 849.648 941.687, 867.657 923.129, 878.545 909.500 C 918.683 859.257, 942.017 803.511, 951.169 736 C 953.138 721.472, 952.816 674.680, 950.638 659 C 948.296 642.135, 945.665 629.472, 941.495 614.982 C 915.956 526.255, 847.830 461.712, 766.702 449.383 C 753.524 447.380, 729.371 447.382, 716.988 449.387 C 694.448 453.036, 669.592 462.792, 651.184 475.213 C 647.143 477.940, 643.559 479.893, 643.220 479.553 C 642.337 478.671, 644.754 442.231, 646.413 431.399 C 650.013 407.901, 653.893 394.518, 656.837 395.443 C 657.752 395.730, 665.250 396.388, 673.500 396.906 C 703.950 398.815, 736.344 394.733, 759.961 386.010 C 786.322 376.273, 805.268 363.895, 824.500 343.845 C 854.768 312.290, 872.967 270.530, 870.722 237.781 C 869.883 225.540, 866.447 221.594, 853.876 218.432 C 844.892 216.173, 806.071 215.560, 793 217.472 Z" stroke="none" fill="#d9522e" fill-rule="evenodd"/><g clip-path="url(#muni3-manzana-0)"><path d="M 793 217.472 C 763.964 221.718, 740.939 230.102, 720.183 243.986 C 690.536 263.816, 666.019 298.547, 653.413 338.575 C 650.432 348.040, 649.970 350.484, 651.095 350.836 C 654.273 351.828, 660.683 359.797, 661.953 364.333 C 663.809 370.961, 662.869 376.471, 658.242 386.099 C 654.473 393.941, 654.331 394.548, 656.096 395.215 C 660.142 396.746, 688.819 397.824, 702.551 396.962 C 732.087 395.108, 752.515 390.189, 776 379.275 C 794.160 370.836, 809.030 359.973, 824.500 343.845 C 854.768 312.290, 872.967 270.530, 870.722 237.781 C 869.883 225.540, 866.447 221.594, 853.876 218.432 C 844.892 216.173, 806.071 215.560, 793 217.472 Z M 453.500 303.492 C 441.994 305.296, 430.706 308.307, 427.451 310.440 C 423.229 313.207, 421.008 317.879, 421.005 324 C 421.001 332.574, 425.530 349.332, 430.877 360.528 C 452.030 404.826, 490.803 432.309, 540.299 438.089 C 553.014 439.573, 577.974 438.744, 591.113 436.401 L 600.727 434.686 601.366 425.591 C 602.028 416.180, 604.191 403.117, 605.417 401.134 C 605.803 400.510, 605.715 400, 605.223 400 C 604.731 400, 603.552 397.188, 602.604 393.750 C 600.346 385.563, 590.542 365.585, 583.831 355.500 C 576.981 345.203, 562.817 330.502, 553.671 324.196 C 540.117 314.851, 523.590 307.862, 506.975 304.451 C 496.252 302.249, 464.997 301.689, 453.500 303.492 Z M 599 456.500 C 599 456.775, 599.225 457, 599.500 457 C 599.775 457, 600 456.775, 600 456.500 C 600 456.225, 599.775 456, 599.500 456 C 599.225 456, 599 456.225, 599 456.500 Z" stroke="none" fill="#43814b" fill-rule="evenodd"/><path d="M 636.344 348.081 C 626.996 349.841, 621.123 354.638, 616.241 364.500 C 612.183 372.696, 605.346 394.590, 605.155 400 C 605.126 400.825, 604.451 404.650, 603.655 408.500 C 601.985 416.583, 599.864 436.660, 599.377 449 C 599.193 453.675, 598.985 457.725, 598.916 458 C 598.846 458.275, 598.880 465.919, 598.991 474.986 C 599.216 493.439, 599.846 495.750, 605.358 498.366 C 612.942 501.964, 629.101 502.068, 635.882 498.561 C 640.767 496.035, 641.722 493.396, 642.440 480.455 C 644.696 439.740, 647.638 416.876, 652.547 401.914 C 653.375 399.392, 654.233 396.386, 654.455 395.233 C 654.677 394.081, 656.528 389.667, 658.568 385.425 C 660.609 381.183, 662.499 375.752, 662.769 373.356 C 663.789 364.308, 659.158 355.588, 650.761 350.745 C 645.565 347.749, 641.800 347.053, 636.344 348.081 Z M 598 456.500 C 598 456.775, 598.225 457, 598.500 457 C 598.775 457, 599 456.775, 599 456.500 C 599 456.225, 598.775 456, 598.500 456 C 598.225 456, 598 456.225, 598 456.500 Z" stroke="none" fill="#60361d" fill-rule="evenodd"/></g></svg>